<svg xmlns="http://www.w3.org/2000/svg" width="412" height="915" viewBox="0 0 412 915"><rect width="412" height="915" fill="#0B1220"/><text x="24" y="30" font-family="Noto Sans, DejaVu Sans, sans-serif" font-size="13" font-weight="600" fill="#F4F7FC" text-anchor="start">9:41</text><circle cx="206.0" cy="19" r="5" fill="#030810"/><path d="M343 28v-4m5 4v-7m5 7v-10" stroke="#F4F7FC" stroke-width="2"/><rect x="370" y="19" width="20" height="10" rx="3" fill="#0B1220" stroke="#F4F7FC"/><rect x="372" y="21" width="14" height="6" rx="1" fill="#F4F7FC"/><rect x="146.0" y="902" width="120" height="4" rx="2" fill="#F4F7FC"/><g transform="translate(24 62) scale(0.9166666666666666)" fill="none" stroke="#A7B5CA" stroke-width="1.7" stroke-linecap="round" stroke-linejoin="round"><path d="m14 4-8 8 8 8 M6 12h15"/></g><text x="58" y="79" font-family="Noto Sans, DejaVu Sans, sans-serif" font-size="21" font-weight="600" fill="#F4F7FC" text-anchor="start">Тіл / Язык</text><text x="24" y="111" font-family="Noto Sans, DejaVu Sans, sans-serif" font-size="12" font-weight="400" fill="#A7B5CA" text-anchor="start">Данные хранятся на устройстве</text><rect x="24" y="142" width="364" height="114" rx="20" fill="#152033" stroke="#29394E"/><g transform="translate(40 166) scale(1.3333333333333333)" fill="none" stroke="#4C8DFF" stroke-width="1.7" stroke-linecap="round" stroke-linejoin="round"><path d="m12 2 9 5v10l-9 5-9-5V7Z M7 15l5-8 5 8 M9 12h6"/></g><text x="84" y="180" font-family="Noto Sans, DejaVu Sans, sans-serif" font-size="18" font-weight="600" fill="#F4F7FC" text-anchor="start">Тіл / Язык</text><text x="84" y="207" font-family="Noto Sans, DejaVu Sans, sans-serif" font-size="11" font-weight="400" fill="#A7B5CA" text-anchor="start">Данные хранятся на устройстве</text><text x="206.0" y="330" font-family="Noto Sans, DejaVu Sans, sans-serif" font-size="34" font-weight="700" fill="#F4F7FC" text-anchor="middle">SAQGO</text><rect x="24" y="390" width="364" height="52" rx="16" fill="#152033" stroke="#29394E"/><text x="206.0" y="423" font-family="Noto Sans, DejaVu Sans, sans-serif" font-size="15" font-weight="600" fill="#F4F7FC" text-anchor="middle">Қазақша</text><rect x="24" y="454" width="364" height="52" rx="16" fill="#152033" stroke="#29394E"/><text x="206.0" y="487" font-family="Noto Sans, DejaVu Sans, sans-serif" font-size="15" font-weight="600" fill="#F4F7FC" text-anchor="middle">Русский</text><rect x="24" y="735" width="364" height="52" rx="16" fill="#4C8DFF"/><text x="218.0" y="768" font-family="Noto Sans, DejaVu Sans, sans-serif" font-size="14" font-weight="600" fill="#0B1220" text-anchor="middle">Начать запись</text><g transform="translate(40 749) scale(1.0)" fill="none" stroke="#0B1220" stroke-width="1.7" stroke-linecap="round" stroke-linejoin="round"><path d="m7 3 14 9-14 9Z"/></g><rect x="0" y="823" width="412" height="68" rx="0" fill="#0B1220"/><path d="M0 823H412" stroke="#29394E"/><g transform="translate(40.5 835) scale(0.9166666666666666)" fill="none" stroke="#4C8DFF" stroke-width="1.7" stroke-linecap="round" stroke-linejoin="round"><path d="m3 5 6-2 6 2 6-2v16l-6 2-6-2-6 2Z M9 3v16 M15 5v16"/></g><text x="51.5" y="874" font-family="Noto Sans, DejaVu Sans, sans-serif" font-size="10" font-weight="500" fill="#4C8DFF" text-anchor="middle">Карта</text><g transform="translate(143.5 835) scale(0.9166666666666666)" fill="none" stroke="#A7B5CA" stroke-width="1.7" stroke-linecap="round" stroke-linejoin="round"><circle cx="5" cy="5" r="2"/><circle cx="19" cy="19" r="2"/><path d="M7 5h8a4 4 0 0 1 0 8H9a4 4 0 0 0 0 6h8"/></g><text x="154.5" y="874" font-family="Noto Sans, DejaVu Sans, sans-serif" font-size="10" font-weight="500" fill="#A7B5CA" text-anchor="middle">Маршруты</text><g transform="translate(246.5 835) scale(0.9166666666666666)" fill="none" stroke="#A7B5CA" stroke-width="1.7" stroke-linecap="round" stroke-linejoin="round"><path d="M5 4h14v17H5Z M8 2v4 M16 2v4 M8 10h8 M8 14h5"/></g><text x="257.5" y="874" font-family="Noto Sans, DejaVu Sans, sans-serif" font-size="10" font-weight="500" fill="#A7B5CA" text-anchor="middle">История</text><g transform="translate(349.5 835) scale(0.9166666666666666)" fill="none" stroke="#A7B5CA" stroke-width="1.7" stroke-linecap="round" stroke-linejoin="round"><path d="M3 6h18 M3 12h18 M3 18h18"/><circle cx="8" cy="6" r="2"/><circle cx="16" cy="12" r="2"/><circle cx="9" cy="18" r="2"/></g><text x="360.5" y="874" font-family="Noto Sans, DejaVu Sans, sans-serif" font-size="10" font-weight="500" fill="#A7B5CA" text-anchor="middle">Настройки</text></svg>