<svg xmlns="http://www.w3.org/2000/svg" width="412" height="915" viewBox="0 0 412 915"><rect width="412" height="915" fill="#0B1220"/><text x="24" y="30" font-family="Noto Sans, DejaVu Sans, sans-serif" font-size="13" font-weight="600" fill="#F4F7FC" text-anchor="start">9:41</text><circle cx="206.0" cy="19" r="5" fill="#030810"/><path d="M343 28v-4m5 4v-7m5 7v-10" stroke="#F4F7FC" stroke-width="2"/><rect x="370" y="19" width="20" height="10" rx="3" fill="#0B1220" stroke="#F4F7FC"/><rect x="372" y="21" width="14" height="6" rx="1" fill="#F4F7FC"/><rect x="146.0" y="902" width="120" height="4" rx="2" fill="#F4F7FC"/><g transform="translate(24 62) scale(0.9166666666666666)" fill="none" stroke="#A7B5CA" stroke-width="1.7" stroke-linecap="round" stroke-linejoin="round"><path d="m14 4-8 8 8 8 M6 12h15"/></g><text x="58" y="79" font-family="Noto Sans, DejaVu Sans, sans-serif" font-size="21" font-weight="600" fill="#F4F7FC" text-anchor="start">Экстренная помощь</text><text x="24" y="111" font-family="Noto Sans, DejaVu Sans, sans-serif" font-size="12" font-weight="400" fill="#A7B5CA" text-anchor="start">Когда помощь нужна сейчас</text><rect x="168.0" y="143" width="76" height="76" rx="24" fill="#432832"/><g transform="translate(188.0 161) scale(1.5)" fill="none" stroke="#FFB0B8" stroke-width="1.7" stroke-linecap="round" stroke-linejoin="round"><path d="M8 3h8v5h5v8h-5v5H8v-5H3V8h5Z"/></g><text x="206.0" y="257" font-family="Noto Sans, DejaVu Sans, sans-serif" font-size="52" font-weight="600" fill="#F4F7FC" text-anchor="middle">112</text><rect x="24" y="287" width="364" height="52" rx="16" fill="#FFB0B8"/><text x="218.0" y="320" font-family="Noto Sans, DejaVu Sans, sans-serif" font-size="14" font-weight="600" fill="#0B1220" text-anchor="middle">Позвонить 112</text><g transform="translate(40 301) scale(1.0)" fill="none" stroke="#0B1220" stroke-width="1.7" stroke-linecap="round" stroke-linejoin="round"><path d="M5 3h4l2 5-3 2a16 16 0 0 0 6 6l2-3 5 2v4c0 5-9 1-14-4S0 3 5 3Z"/></g><text x="206.0" y="361" font-family="Noto Sans, DejaVu Sans, sans-serif" font-size="11" font-weight="400" fill="#A7B5CA" text-anchor="middle">Открывает системный набор номера</text><rect x="24" y="384" width="364" height="79" rx="16" fill="#152033" stroke="#29394E"/><g transform="translate(40 406) scale(0.9166666666666666)" fill="none" stroke="#A7B5CA" stroke-width="1.7" stroke-linecap="round" stroke-linejoin="round"><path d="M2 6a17 17 0 0 1 20 0 M5 10a12 12 0 0 1 14 0 M9 14a5 5 0 0 1 6 0 M3 3l18 18"/><circle cx="12" cy="18" r="1"/></g><text x="76" y="410" font-family="Noto Sans, DejaVu Sans, sans-serif" font-size="12" font-weight="400" fill="#A7B5CA" text-anchor="start">Для звонка нужна доступная</text><text x="76" y="433" font-family="Noto Sans, DejaVu Sans, sans-serif" font-size="12" font-weight="400" fill="#A7B5CA" text-anchor="start">мобильная сеть.</text><text x="24" y="500" font-family="Noto Sans, DejaVu Sans, sans-serif" font-size="16" font-weight="600" fill="#F4F7FC" text-anchor="start">Во время звонка</text><rect x="24" y="519" width="24" height="24" rx="8" fill="#203A50"/><text x="36" y="536" font-family="Noto Sans, DejaVu Sans, sans-serif" font-size="11" font-weight="600" fill="#70D5DA" text-anchor="middle">1</text><text x="60" y="536" font-family="Noto Sans, DejaVu Sans, sans-serif" font-size="10" font-weight="400" fill="#F4F7FC" text-anchor="start">Назовите место и что произошло.</text><rect x="24" y="558" width="24" height="24" rx="8" fill="#203A50"/><text x="36" y="575" font-family="Noto Sans, DejaVu Sans, sans-serif" font-size="11" font-weight="600" fill="#70D5DA" text-anchor="middle">2</text><text x="60" y="575" font-family="Noto Sans, DejaVu Sans, sans-serif" font-size="10" font-weight="400" fill="#F4F7FC" text-anchor="start">Следуйте указаниям диспетчера.</text><rect x="24" y="597" width="24" height="24" rx="8" fill="#203A50"/><text x="36" y="614" font-family="Noto Sans, DejaVu Sans, sans-serif" font-size="11" font-weight="600" fill="#70D5DA" text-anchor="middle">3</text><text x="60" y="614" font-family="Noto Sans, DejaVu Sans, sans-serif" font-size="10" font-weight="400" fill="#F4F7FC" text-anchor="start">Оставайтесь на связи, если это возможно.</text><rect x="24" y="654" width="364" height="66" rx="16" fill="#152033" stroke="#29394E"/><text x="40" y="680" font-family="Noto Sans, DejaVu Sans, sans-serif" font-size="11" font-weight="500" fill="#F4F7FC" text-anchor="start">Bluetooth: исследовательский режим</text><text x="40" y="703" font-family="Noto Sans, DejaVu Sans, sans-serif" font-size="10" font-weight="400" fill="#A7B5CA" text-anchor="start">Не отправляет сигнал спасателям</text><text x="24" y="740" font-family="Noto Sans, DejaVu Sans, sans-serif" font-size="10" font-weight="400" fill="#A7B5CA" text-anchor="start">Автоматическая отправка помощи не выполняется</text><rect x="0" y="823" width="412" height="68" rx="0" fill="#0B1220"/><path d="M0 823H412" stroke="#29394E"/><g transform="translate(40.5 835) scale(0.9166666666666666)" fill="none" stroke="#A7B5CA" stroke-width="1.7" stroke-linecap="round" stroke-linejoin="round"><path d="m3 5 6-2 6 2 6-2v16l-6 2-6-2-6 2Z M9 3v16 M15 5v16"/></g><text x="51.5" y="874" font-family="Noto Sans, DejaVu Sans, sans-serif" font-size="10" font-weight="500" fill="#A7B5CA" text-anchor="middle">Карта</text><g transform="translate(143.5 835) scale(0.9166666666666666)" fill="none" stroke="#A7B5CA" stroke-width="1.7" stroke-linecap="round" stroke-linejoin="round"><circle cx="5" cy="5" r="2"/><circle cx="19" cy="19" r="2"/><path d="M7 5h8a4 4 0 0 1 0 8H9a4 4 0 0 0 0 6h8"/></g><text x="154.5" y="874" font-family="Noto Sans, DejaVu Sans, sans-serif" font-size="10" font-weight="500" fill="#A7B5CA" text-anchor="middle">Маршруты</text><g transform="translate(246.5 835) scale(0.9166666666666666)" fill="none" stroke="#A7B5CA" stroke-width="1.7" stroke-linecap="round" stroke-linejoin="round"><path d="M5 4h14v17H5Z M8 2v4 M16 2v4 M8 10h8 M8 14h5"/></g><text x="257.5" y="874" font-family="Noto Sans, DejaVu Sans, sans-serif" font-size="10" font-weight="500" fill="#A7B5CA" text-anchor="middle">История</text><g transform="translate(349.5 835) scale(0.9166666666666666)" fill="none" stroke="#A7B5CA" stroke-width="1.7" stroke-linecap="round" stroke-linejoin="round"><path d="M3 6h18 M3 12h18 M3 18h18"/><circle cx="8" cy="6" r="2"/><circle cx="16" cy="12" r="2"/><circle cx="9" cy="18" r="2"/></g><text x="360.5" y="874" font-family="Noto Sans, DejaVu Sans, sans-serif" font-size="10" font-weight="500" fill="#A7B5CA" text-anchor="middle">Настройки</text></svg>