<svg xmlns="http://www.w3.org/2000/svg" width="1160" height="760" viewBox="0 0 1160 760"><rect width="1160" height="760" fill="#0B1220"/><text x="48" y="67" font-family="Noto Sans, DejaVu Sans, sans-serif" font-size="17" font-weight="600" fill="#70D5DA" text-anchor="start">SAQGO / VISUAL DIRECTION</text><text x="48" y="131" font-family="Noto Sans, DejaVu Sans, sans-serif" font-size="40" font-weight="600" fill="#F4F7FC" text-anchor="start">Ясность. Контроль. Город.</text><text x="48" y="172" font-family="Noto Sans, DejaVu Sans, sans-serif" font-size="18" font-weight="400" fill="#A7B5CA" text-anchor="start">Минимализм для городской мобильности · концепция 01</text><rect x="48" y="214" width="194" height="90" rx="20" fill="#0B1220" stroke="#29394E"/><text x="48" y="336" font-family="Noto Sans, DejaVu Sans, sans-serif" font-size="14" font-weight="500" fill="#F4F7FC" text-anchor="start">Night Navy</text><text x="48" y="362" font-family="Noto Sans, DejaVu Sans, sans-serif" font-size="12" font-weight="400" fill="#A7B5CA" text-anchor="start">#0B1220</text><rect x="266" y="214" width="194" height="90" rx="20" fill="#152033" stroke="#29394E"/><text x="266" y="336" font-family="Noto Sans, DejaVu Sans, sans-serif" font-size="14" font-weight="500" fill="#F4F7FC" text-anchor="start">Surface</text><text x="266" y="362" font-family="Noto Sans, DejaVu Sans, sans-serif" font-size="12" font-weight="400" fill="#A7B5CA" text-anchor="start">#152033</text><rect x="484" y="214" width="194" height="90" rx="20" fill="#4C8DFF" stroke="#29394E"/><text x="484" y="336" font-family="Noto Sans, DejaVu Sans, sans-serif" font-size="14" font-weight="500" fill="#F4F7FC" text-anchor="start">Electric Blue</text><text x="484" y="362" font-family="Noto Sans, DejaVu Sans, sans-serif" font-size="12" font-weight="400" fill="#A7B5CA" text-anchor="start">#4C8DFF</text><rect x="702" y="214" width="194" height="90" rx="20" fill="#70D5DA" stroke="#29394E"/><text x="702" y="336" font-family="Noto Sans, DejaVu Sans, sans-serif" font-size="14" font-weight="500" fill="#F4F7FC" text-anchor="start">Cyan</text><text x="702" y="362" font-family="Noto Sans, DejaVu Sans, sans-serif" font-size="12" font-weight="400" fill="#A7B5CA" text-anchor="start">#70D5DA</text><rect x="920" y="214" width="194" height="90" rx="20" fill="#FFB0B8" stroke="#29394E"/><text x="920" y="336" font-family="Noto Sans, DejaVu Sans, sans-serif" font-size="14" font-weight="500" fill="#F4F7FC" text-anchor="start">SOS</text><text x="920" y="362" font-family="Noto Sans, DejaVu Sans, sans-serif" font-size="12" font-weight="400" fill="#A7B5CA" text-anchor="start">#FFB0B8</text><rect x="48" y="402" width="476" height="254" rx="24" fill="#152033" stroke="#29394E"/><text x="72" y="442" font-family="Noto Sans, DejaVu Sans, sans-serif" font-size="27" font-weight="600" fill="#F4F7FC" text-anchor="start">Noto Sans</text><text x="72" y="487" font-family="Noto Sans, DejaVu Sans, sans-serif" font-size="25" font-weight="400" fill="#F4F7FC" text-anchor="start">Арқалық / Аркалык</text><text x="72" y="529" font-family="Noto Sans, DejaVu Sans, sans-serif" font-size="25" font-weight="400" fill="#70D5DA" text-anchor="start">Ә Ғ Қ Ң Ө Ұ Ү Һ І</text><text x="72" y="568" font-family="Noto Sans, DejaVu Sans, sans-serif" font-size="15" font-weight="400" fill="#A7B5CA" text-anchor="start">8 pt · 16 / 24 radius · 48+ targets</text><g transform="translate(72 604) scale(1.1666666666666667)" fill="none" stroke="#F4F7FC" stroke-width="1.7" stroke-linecap="round" stroke-linejoin="round"><path d="m3 5 6-2 6 2 6-2v16l-6 2-6-2-6 2Z M9 3v16 M15 5v16"/></g><g transform="translate(139 604) scale(1.1666666666666667)" fill="none" stroke="#F4F7FC" stroke-width="1.7" stroke-linecap="round" stroke-linejoin="round"><circle cx="5" cy="5" r="2"/><circle cx="19" cy="19" r="2"/><path d="M7 5h8a4 4 0 0 1 0 8H9a4 4 0 0 0 0 6h8"/></g><g transform="translate(206 604) scale(1.1666666666666667)" fill="none" stroke="#F4F7FC" stroke-width="1.7" stroke-linecap="round" stroke-linejoin="round"><path d="M2 12h4l3-7 5 14 3-7h5"/></g><g transform="translate(273 604) scale(1.1666666666666667)" fill="none" stroke="#F4F7FC" stroke-width="1.7" stroke-linecap="round" stroke-linejoin="round"><path d="M5 4h14v17H5Z M8 2v4 M16 2v4 M8 10h8 M8 14h5"/></g><g transform="translate(340 604) scale(1.1666666666666667)" fill="none" stroke="#F4F7FC" stroke-width="1.7" stroke-linecap="round" stroke-linejoin="round"><path d="M8 3h8v5h5v8h-5v5H8v-5H3V8h5Z"/></g><g transform="translate(407 604) scale(1.1666666666666667)" fill="none" stroke="#F4F7FC" stroke-width="1.7" stroke-linecap="round" stroke-linejoin="round"><path d="m12 2 9 4v6c0 5-9 10-9 10S3 17 3 12V6Z"/><path d="m7 12 3 3 7-7"/></g><rect x="556" y="402" width="556" height="254" rx="20" fill="#0F1C2A"/><g transform="translate(556 402)"><defs><clipPath id="mapclip"><rect width="556" height="254" rx="20"/></clipPath></defs><g clip-path="url(#mapclip)"><rect x="-35" y="-10" width="65" height="52" rx="5" fill="#182839"/><rect x="55" y="-10" width="65" height="52" rx="5" fill="#182839"/><rect x="145" y="-10" width="65" height="52" rx="5" fill="#182839"/><rect x="235" y="-10" width="65" height="52" rx="5" fill="#182839"/><rect x="325" y="-10" width="65" height="52" rx="5" fill="#182839"/><rect x="-15" y="67" width="65" height="52" rx="5" fill="#182839"/><rect x="75" y="67" width="65" height="52" rx="5" fill="#182839"/><rect x="165" y="67" width="65" height="52" rx="5" fill="#182839"/><rect x="255" y="67" width="65" height="52" rx="5" fill="#182839"/><rect x="345" y="67" width="65" height="52" rx="5" fill="#182839"/><rect x="-35" y="144" width="65" height="52" rx="5" fill="#182839"/><rect x="55" y="144" width="65" height="52" rx="5" fill="#182839"/><rect x="145" y="144" width="65" height="52" rx="5" fill="#182839"/><rect x="235" y="144" width="65" height="52" rx="5" fill="#182839"/><rect x="325" y="144" width="65" height="52" rx="5" fill="#182839"/><rect x="-15" y="221" width="65" height="52" rx="5" fill="#182839"/><rect x="75" y="221" width="65" height="52" rx="5" fill="#182839"/><rect x="165" y="221" width="65" height="52" rx="5" fill="#182839"/><rect x="255" y="221" width="65" height="52" rx="5" fill="#182839"/><rect x="345" y="221" width="65" height="52" rx="5" fill="#182839"/><rect x="-35" y="298" width="65" height="52" rx="5" fill="#182839"/><rect x="55" y="298" width="65" height="52" rx="5" fill="#182839"/><rect x="145" y="298" width="65" height="52" rx="5" fill="#182839"/><rect x="235" y="298" width="65" height="52" rx="5" fill="#182839"/><rect x="325" y="298" width="65" height="52" rx="5" fill="#182839"/><rect x="-15" y="375" width="65" height="52" rx="5" fill="#182839"/><rect x="75" y="375" width="65" height="52" rx="5" fill="#182839"/><rect x="165" y="375" width="65" height="52" rx="5" fill="#182839"/><rect x="255" y="375" width="65" height="52" rx="5" fill="#182839"/><rect x="345" y="375" width="65" height="52" rx="5" fill="#182839"/><path d="M-30 177.79999999999998 Q120 88.89999999999999 586 106.67999999999999" stroke="#244347" stroke-width="40" fill="none"/><path d="M-80 -30 80 304" stroke="#39485B" stroke-width="9" fill="none"/><path d="M30 -30 190 304" stroke="#39485B" stroke-width="9" fill="none"/><path d="M140 -30 300 304" stroke="#39485B" stroke-width="9" fill="none"/><path d="M250 -30 410 304" stroke="#39485B" stroke-width="9" fill="none"/><path d="M360 -30 520 304" stroke="#39485B" stroke-width="9" fill="none"/><path d="M-20 90 586 30" stroke="#39485B" stroke-width="8" fill="none"/><path d="M-20 205 586 145" stroke="#39485B" stroke-width="8" fill="none"/><path d="M-20 330 586 270" stroke="#39485B" stroke-width="8" fill="none"/><path d="M-20 440 586 380" stroke="#39485B" stroke-width="8" fill="none"/><path d="M122.32000000000001 190.5 L244.64000000000001 162.56 L200.16 86.36 L428.12 60.96" stroke="#4C8DFF" stroke-width="6" fill="none" stroke-linecap="round" stroke-linejoin="round"/><circle cx="122.32000000000001" cy="190.5" r="12" fill="#F4F7FC"/><text x="122.32000000000001" y="194.5" font-family="Noto Sans, DejaVu Sans, sans-serif" font-size="11" font-weight="600" fill="#0B1220" text-anchor="middle">A</text><circle cx="428.12" cy="60.96" r="12" fill="#F4F7FC"/><text x="428.12" y="64.96000000000001" font-family="Noto Sans, DejaVu Sans, sans-serif" font-size="11" font-weight="600" fill="#0B1220" text-anchor="middle">B</text></g></g><rect x="578" y="422" width="182.0" height="26" rx="13" fill="#203A50"/><text x="589" y="440" font-family="Noto Sans, DejaVu Sans, sans-serif" font-size="10" font-weight="600" fill="#70D5DA" text-anchor="start">Демо-карта · не геоданные</text><text x="48" y="710" font-family="Noto Sans, DejaVu Sans, sans-serif" font-size="16" font-weight="400" fill="#A7B5CA" text-anchor="start">Оригинальные векторы / без фотографий, неона и утверждений о безопасности</text></svg>